{
	"patcher" : 	{
		"fileversion" : 1,
		"appversion" : 		{
			"major" : 6,
			"minor" : 1,
			"revision" : 1,
			"architecture" : "x86"
		}
,
		"rect" : [ 0.0, 44.0, 1603.0, 1035.0 ],
		"bglocked" : 0,
		"openinpresentation" : 0,
		"default_fontsize" : 12.0,
		"default_fontface" : 0,
		"default_fontname" : "Arial",
		"gridonopen" : 0,
		"gridsize" : [ 15.0, 15.0 ],
		"gridsnaponopen" : 0,
		"statusbarvisible" : 2,
		"toolbarvisible" : 1,
		"boxanimatetime" : 200,
		"imprint" : 0,
		"enablehscroll" : 1,
		"enablevscroll" : 1,
		"devicewidth" : 0.0,
		"description" : "",
		"digest" : "",
		"tags" : "",
		"boxes" : [ 			{
				"box" : 				{
					"comment" : "",
					"id" : "obj-21",
					"maxclass" : "outlet",
					"numinlets" : 1,
					"numoutlets" : 0,
					"patching_rect" : [ 427.0, 647.0, 25.0, 25.0 ]
				}

			}
, 			{
				"box" : 				{
					"comment" : "",
					"id" : "obj-23",
					"maxclass" : "outlet",
					"numinlets" : 1,
					"numoutlets" : 0,
					"patching_rect" : [ 372.0, 647.0, 25.0, 25.0 ]
				}

			}
, 			{
				"box" : 				{
					"comment" : "",
					"id" : "obj-24",
					"maxclass" : "outlet",
					"numinlets" : 1,
					"numoutlets" : 0,
					"patching_rect" : [ 317.0, 647.0, 25.0, 25.0 ]
				}

			}
, 			{
				"box" : 				{
					"comment" : "",
					"id" : "obj-25",
					"maxclass" : "outlet",
					"numinlets" : 1,
					"numoutlets" : 0,
					"patching_rect" : [ 262.0, 647.0, 25.0, 25.0 ]
				}

			}
, 			{
				"box" : 				{
					"comment" : "",
					"id" : "obj-18",
					"maxclass" : "outlet",
					"numinlets" : 1,
					"numoutlets" : 0,
					"patching_rect" : [ 207.0, 647.0, 25.0, 25.0 ]
				}

			}
, 			{
				"box" : 				{
					"comment" : "",
					"id" : "obj-19",
					"maxclass" : "outlet",
					"numinlets" : 1,
					"numoutlets" : 0,
					"patching_rect" : [ 152.0, 647.0, 25.0, 25.0 ]
				}

			}
, 			{
				"box" : 				{
					"comment" : "",
					"id" : "obj-17",
					"maxclass" : "outlet",
					"numinlets" : 1,
					"numoutlets" : 0,
					"patching_rect" : [ 97.0, 647.0, 25.0, 25.0 ]
				}

			}
, 			{
				"box" : 				{
					"comment" : "",
					"id" : "obj-16",
					"maxclass" : "outlet",
					"numinlets" : 1,
					"numoutlets" : 0,
					"patching_rect" : [ 42.0, 647.0, 25.0, 25.0 ]
				}

			}
, 			{
				"box" : 				{
					"comment" : "Record on/off",
					"id" : "obj-15",
					"maxclass" : "inlet",
					"numinlets" : 0,
					"numoutlets" : 1,
					"outlettype" : [ "" ],
					"patching_rect" : [ 153.0, 190.0, 25.0, 25.0 ]
				}

			}
, 			{
				"box" : 				{
					"comment" : "Signal",
					"id" : "obj-13",
					"maxclass" : "inlet",
					"numinlets" : 0,
					"numoutlets" : 1,
					"outlettype" : [ "" ],
					"patching_rect" : [ 86.0, 167.0, 25.0, 25.0 ]
				}

			}
, 			{
				"box" : 				{
					"fontname" : "Arial",
					"fontsize" : 10.0,
					"id" : "obj-1",
					"maxclass" : "newobj",
					"numinlets" : 0,
					"numoutlets" : 0,
					"patcher" : 					{
						"fileversion" : 1,
						"appversion" : 						{
							"major" : 6,
							"minor" : 1,
							"revision" : 1,
							"architecture" : "x86"
						}
,
						"rect" : [ 588.0, 72.0, 382.0, 358.0 ],
						"bglocked" : 0,
						"openinpresentation" : 0,
						"default_fontsize" : 12.0,
						"default_fontface" : 0,
						"default_fontname" : "Arial",
						"gridonopen" : 0,
						"gridsize" : [ 15.0, 15.0 ],
						"gridsnaponopen" : 0,
						"statusbarvisible" : 2,
						"toolbarvisible" : 1,
						"boxanimatetime" : 200,
						"imprint" : 0,
						"enablehscroll" : 1,
						"enablevscroll" : 1,
						"devicewidth" : 0.0,
						"description" : "",
						"digest" : "",
						"tags" : "",
						"boxes" : [ 							{
								"box" : 								{
									"fontname" : "Arial",
									"fontsize" : 10.0,
									"frgb" : 0.0,
									"id" : "obj-1",
									"linecount" : 3,
									"maxclass" : "comment",
									"numinlets" : 1,
									"numoutlets" : 0,
									"patching_rect" : [ 21.0, 289.0, 306.0, 40.0 ],
									"text" : "• \"buffer\" allows use of external buffer specified by name (i.e. \"buffer name).\" command \"buffer\" reverts to internal buffer (default)."
								}

							}
, 							{
								"box" : 								{
									"fontname" : "Arial",
									"fontsize" : 10.0,
									"frgb" : 0.0,
									"id" : "obj-2",
									"linecount" : 4,
									"maxclass" : "comment",
									"numinlets" : 1,
									"numoutlets" : 0,
									"patching_rect" : [ 21.0, 224.0, 284.0, 51.0 ],
									"text" : "• \"oneshot\" sends a note with pitch, duration, amplitude and an ADSR. Experiment with values to gain better understanding of this one. When oneshot is on, the regular output is disabled."
								}

							}
, 							{
								"box" : 								{
									"fontname" : "Arial",
									"fontsize" : 10.0,
									"frgb" : 0.0,
									"id" : "obj-3",
									"linecount" : 4,
									"maxclass" : "comment",
									"numinlets" : 1,
									"numoutlets" : 0,
									"patching_rect" : [ 21.0, 148.0, 341.0, 51.0 ],
									"text" : "• \"discretepan\" 0-1. 0 adds the same grain to every output channel with varied amplitude (provided random value is set (see spatialize which has number pairs reflecting amount of randomness plus the default amplitude). 1 makes every grain channel specific."
								}

							}
, 							{
								"box" : 								{
									"fontname" : "Arial",
									"fontsize" : 10.0,
									"frgb" : 0.0,
									"id" : "obj-4",
									"linecount" : 4,
									"maxclass" : "comment",
									"numinlets" : 1,
									"numoutlets" : 0,
									"patching_rect" : [ 21.0, 70.0, 341.0, 51.0 ],
									"text" : "• \"discretepan\" 0-1. 0 adds the same grain to every output channel with varied amplitude (provided random value is set (see spatialize which has number pairs reflecting amount of randomness plus the default amplitude). 1 makes every grain channel specific."
								}

							}
, 							{
								"box" : 								{
									"fontname" : "Arial",
									"fontsize" : 10.0,
									"frgb" : 0.0,
									"id" : "obj-5",
									"linecount" : 2,
									"maxclass" : "comment",
									"numinlets" : 1,
									"numoutlets" : 0,
									"patching_rect" : [ 21.0, 22.0, 338.0, 29.0 ],
									"text" : "• \"verbose\" takes values 0-3: 0-off, 1-errors and warnings only, 2-all messages, and 3 which adds also number of grains per second output."
								}

							}
 ],
						"lines" : [  ]
					}
,
					"patching_rect" : [ 122.0, 376.0, 41.0, 18.0 ],
					"saved_object_attributes" : 					{
						"default_fontface" : 0,
						"default_fontname" : "Arial",
						"default_fontsize" : 12.0,
						"description" : "",
						"digest" : "",
						"fontface" : 0,
						"fontname" : "Arial",
						"fontsize" : 12.0,
						"globalpatchername" : "",
						"tags" : ""
					}
,
					"text" : "p more"
				}

			}
, 			{
				"box" : 				{
					"fontname" : "Arial",
					"fontsize" : 9.0,
					"id" : "obj-2",
					"maxclass" : "message",
					"numinlets" : 2,
					"numoutlets" : 1,
					"outlettype" : [ "" ],
					"patching_rect" : [ 19.0, 38.0, 29.0, 15.0 ],
					"text" : "read"
				}

			}
, 			{
				"box" : 				{
					"fontname" : "Arial",
					"fontsize" : 9.0,
					"id" : "obj-3",
					"maxclass" : "message",
					"numinlets" : 2,
					"numoutlets" : 1,
					"outlettype" : [ "" ],
					"patching_rect" : [ 42.0, 294.0, 101.0, 15.0 ],
					"text" : "buffer something"
				}

			}
, 			{
				"box" : 				{
					"fontname" : "Arial",
					"fontsize" : 9.0,
					"id" : "obj-4",
					"maxclass" : "message",
					"numinlets" : 2,
					"numoutlets" : 1,
					"outlettype" : [ "" ],
					"patching_rect" : [ 38.0, 272.0, 49.0, 15.0 ],
					"text" : "buffer"
				}

			}
, 			{
				"box" : 				{
					"bgcolor" : [ 0.866667, 0.866667, 0.866667, 1.0 ],
					"fontname" : "Arial",
					"fontsize" : 9.0,
					"htextcolor" : [ 0.870588, 0.870588, 0.870588, 1.0 ],
					"id" : "obj-5",
					"maxclass" : "number",
					"maximum" : 1,
					"minimum" : 0,
					"numinlets" : 1,
					"numoutlets" : 2,
					"outlettype" : [ "int", "bang" ],
					"parameter_enable" : 0,
					"patching_rect" : [ 38.0, 321.0, 35.0, 17.0 ],
					"triscale" : 0.9
				}

			}
, 			{
				"box" : 				{
					"fontname" : "Arial",
					"fontsize" : 9.0,
					"id" : "obj-6",
					"maxclass" : "message",
					"numinlets" : 2,
					"numoutlets" : 1,
					"outlettype" : [ "" ],
					"patching_rect" : [ 38.0, 338.0, 91.0, 15.0 ],
					"text" : "discretepan $1"
				}

			}
, 			{
				"box" : 				{
					"bgcolor" : [ 0.866667, 0.866667, 0.866667, 1.0 ],
					"fontname" : "Arial",
					"fontsize" : 9.0,
					"htextcolor" : [ 0.870588, 0.870588, 0.870588, 1.0 ],
					"id" : "obj-7",
					"maxclass" : "number",
					"maximum" : 1,
					"minimum" : 0,
					"numinlets" : 1,
					"numoutlets" : 2,
					"outlettype" : [ "int", "bang" ],
					"parameter_enable" : 0,
					"patching_rect" : [ 38.0, 400.0, 35.0, 17.0 ],
					"triscale" : 0.9
				}

			}
, 			{
				"box" : 				{
					"fontname" : "Arial",
					"fontsize" : 9.0,
					"id" : "obj-8",
					"maxclass" : "message",
					"numinlets" : 2,
					"numoutlets" : 1,
					"outlettype" : [ "" ],
					"patching_rect" : [ 38.0, 418.0, 60.0, 15.0 ],
					"text" : "oneshot $1"
				}

			}
, 			{
				"box" : 				{
					"bgcolor" : [ 0.866667, 0.866667, 0.866667, 1.0 ],
					"fontname" : "Arial",
					"fontsize" : 9.0,
					"htextcolor" : [ 0.870588, 0.870588, 0.870588, 1.0 ],
					"id" : "obj-9",
					"maxclass" : "number",
					"maximum" : 3,
					"minimum" : 0,
					"numinlets" : 1,
					"numoutlets" : 2,
					"outlettype" : [ "int", "bang" ],
					"parameter_enable" : 0,
					"patching_rect" : [ 38.0, 361.0, 35.0, 17.0 ],
					"triscale" : 0.9
				}

			}
, 			{
				"box" : 				{
					"fontname" : "Arial",
					"fontsize" : 9.0,
					"id" : "obj-10",
					"maxclass" : "message",
					"numinlets" : 2,
					"numoutlets" : 1,
					"outlettype" : [ "" ],
					"patching_rect" : [ 38.0, 438.0, 150.0, 15.0 ],
					"text" : "note 2 4 0.5 20 50 0.9 100 1"
				}

			}
, 			{
				"box" : 				{
					"fontname" : "Arial",
					"fontsize" : 9.0,
					"id" : "obj-11",
					"maxclass" : "message",
					"numinlets" : 2,
					"numoutlets" : 1,
					"outlettype" : [ "" ],
					"patching_rect" : [ 38.0, 378.0, 73.0, 15.0 ],
					"text" : "verbose $1"
				}

			}
, 			{
				"box" : 				{
					"fontname" : "Arial",
					"fontsize" : 9.0,
					"id" : "obj-12",
					"maxclass" : "message",
					"numinlets" : 2,
					"numoutlets" : 1,
					"outlettype" : [ "" ],
					"patching_rect" : [ 474.0, 558.0, 385.0, 15.0 ],
					"text" : "spatialize 0.1 0.5 0.1 0.5 0.1 0.5 0.1 0.5 0.1 0.5 0.1 0.5 0.1 0.5 0.1 0.5"
				}

			}
, 			{
				"box" : 				{
					"fontname" : "Arial",
					"fontsize" : 9.0,
					"id" : "obj-20",
					"maxclass" : "message",
					"numinlets" : 2,
					"numoutlets" : 1,
					"outlettype" : [ "" ],
					"patching_rect" : [ 485.0, 538.0, 31.0, 15.0 ],
					"text" : "clear"
				}

			}
, 			{
				"box" : 				{
					"fontname" : "Arial",
					"fontsize" : 9.0,
					"id" : "obj-22",
					"maxclass" : "message",
					"numinlets" : 2,
					"numoutlets" : 1,
					"outlettype" : [ "" ],
					"patching_rect" : [ 485.0, 520.0, 31.0, 15.0 ],
					"text" : "state"
				}

			}
, 			{
				"box" : 				{
					"bubblesize" : 8,
					"id" : "obj-27",
					"margin" : 4,
					"maxclass" : "preset",
					"numinlets" : 1,
					"numoutlets" : 4,
					"outlettype" : [ "preset", "int", "preset", "int" ],
					"patching_rect" : [ 255.0, 423.0, 46.0, 36.0 ],
					"preset_data" : [ 						{
							"number" : 1,
							"data" : [ 5, "obj-100", "flonum", "float", 0.0, 5, "obj-99", "flonum", "float", 100.0, 5, "obj-98", "flonum", "float", 5.0, 5, "obj-97", "flonum", "float", 1.0, 5, "obj-96", "flonum", "float", 0.0, 5, "obj-95", "flonum", "float", 50.0, 5, "obj-94", "flonum", "float", 0.0, 6, "<invalid>", "gain~", "list", 95, 10.0, 6, "<invalid>", "gain~", "list", 95, 10.0, 5, "obj-76", "number", "int", 10, 5, "<invalid>", "toggle", "int", 1, 6, "<invalid>", "gain~", "list", 0, 10.0, 5, "<invalid>", "umenu", "int", 1, 5, "obj-58", "number", "int", 50, 5, "obj-55", "toggle", "int", 1, 5, "obj-53", "flonum", "float", 300.0, 5, "obj-39", "number", "int", 0, 5, "obj-36", "flonum", "float", -1.0, 5, "obj-35", "toggle", "int", 1, 5, "obj-31", "flonum", "float", 1.0, 5, "obj-29", "flonum", "float", 0.0 ]
						}
, 						{
							"number" : 2,
							"data" : [ 5, "obj-100", "flonum", "float", 0.0, 5, "obj-99", "flonum", "float", 100.0, 5, "obj-98", "flonum", "float", 5.0, 5, "obj-97", "flonum", "float", 1.0, 5, "obj-96", "flonum", "float", 0.0, 5, "obj-95", "flonum", "float", 100.0, 5, "obj-94", "flonum", "float", 0.0, 6, "<invalid>", "gain~", "list", 97, 10.0, 6, "<invalid>", "gain~", "list", 97, 10.0, 5, "obj-76", "number", "int", 10, 5, "<invalid>", "toggle", "int", 1, 6, "<invalid>", "gain~", "list", 0, 10.0, 5, "<invalid>", "umenu", "int", 1, 5, "obj-58", "number", "int", 50, 5, "obj-55", "toggle", "int", 1, 5, "obj-53", "flonum", "float", 1000.0, 5, "obj-39", "number", "int", 0, 5, "obj-36", "flonum", "float", -1.0, 5, "obj-35", "toggle", "int", 1, 5, "obj-31", "flonum", "float", 1.0, 5, "obj-29", "flonum", "float", 0.0 ]
						}
, 						{
							"number" : 3,
							"data" : [ 5, "obj-100", "flonum", "float", 0.0, 5, "obj-99", "flonum", "float", 300.0, 5, "obj-98", "flonum", "float", 1.0, 5, "obj-97", "flonum", "float", 1.0, 5, "obj-96", "flonum", "float", 0.0, 5, "obj-95", "flonum", "float", 50.0, 5, "obj-94", "flonum", "float", 0.78, 6, "<invalid>", "gain~", "list", 92, 10.0, 6, "<invalid>", "gain~", "list", 92, 10.0, 5, "obj-76", "number", "int", 10, 5, "<invalid>", "toggle", "int", 1, 6, "<invalid>", "gain~", "list", 0, 10.0, 5, "<invalid>", "umenu", "int", 1, 5, "obj-58", "number", "int", 50, 5, "obj-55", "toggle", "int", 1, 5, "obj-53", "flonum", "float", 100.0, 5, "obj-39", "number", "int", 0, 5, "obj-36", "flonum", "float", -1.0, 5, "obj-35", "toggle", "int", 1, 5, "obj-31", "flonum", "float", 1.0, 5, "obj-29", "flonum", "float", 0.0 ]
						}
, 						{
							"number" : 4,
							"data" : [ 5, "obj-100", "flonum", "float", 0.0, 5, "obj-99", "flonum", "float", 300.0, 5, "obj-98", "flonum", "float", 1.0, 5, "obj-97", "flonum", "float", 1.0, 5, "obj-96", "flonum", "float", 0.0, 5, "obj-95", "flonum", "float", 50.0, 5, "obj-94", "flonum", "float", 0.78, 6, "<invalid>", "gain~", "list", 92, 10.0, 6, "<invalid>", "gain~", "list", 92, 10.0, 5, "obj-76", "number", "int", 10, 5, "<invalid>", "toggle", "int", 1, 6, "<invalid>", "gain~", "list", 0, 10.0, 5, "<invalid>", "umenu", "int", 1, 5, "obj-58", "number", "int", 50, 5, "obj-55", "toggle", "int", 1, 5, "obj-53", "flonum", "float", 1000.0, 5, "obj-39", "number", "int", 0, 5, "obj-36", "flonum", "float", -1.0, 5, "obj-35", "toggle", "int", 1, 5, "obj-31", "flonum", "float", 1.0, 5, "obj-29", "flonum", "float", 0.0 ]
						}
, 						{
							"number" : 5,
							"data" : [ 5, "obj-100", "flonum", "float", 100.0, 5, "obj-99", "flonum", "float", 300.0, 5, "obj-98", "flonum", "float", 1.0, 5, "obj-97", "flonum", "float", 1.0, 5, "obj-96", "flonum", "float", 0.0, 5, "obj-95", "flonum", "float", 50.0, 5, "obj-94", "flonum", "float", 0.78, 6, "<invalid>", "gain~", "list", 102, 10.0, 6, "<invalid>", "gain~", "list", 102, 10.0, 5, "obj-76", "number", "int", 1, 5, "<invalid>", "toggle", "int", 1, 6, "<invalid>", "gain~", "list", 0, 10.0, 5, "<invalid>", "umenu", "int", 1, 5, "obj-58", "number", "int", 50, 5, "obj-55", "toggle", "int", 1, 5, "obj-53", "flonum", "float", 300.0, 5, "obj-39", "number", "int", 0, 5, "obj-36", "flonum", "float", -1.0, 5, "obj-35", "toggle", "int", 1, 5, "obj-31", "flonum", "float", 1.0, 5, "obj-29", "flonum", "float", 0.0 ]
						}
, 						{
							"number" : 6,
							"data" : [ 5, "obj-100", "flonum", "float", 100.0, 5, "obj-99", "flonum", "float", 300.0, 5, "obj-98", "flonum", "float", 1.0, 5, "obj-97", "flonum", "float", 1.0, 5, "obj-96", "flonum", "float", 100.0, 5, "obj-95", "flonum", "float", 150.0, 5, "obj-94", "flonum", "float", 0.78, 6, "<invalid>", "gain~", "list", 102, 10.0, 6, "<invalid>", "gain~", "list", 102, 10.0, 5, "obj-76", "number", "int", 1, 5, "<invalid>", "toggle", "int", 1, 6, "<invalid>", "gain~", "list", 0, 10.0, 5, "<invalid>", "umenu", "int", 1, 5, "obj-58", "number", "int", 50, 5, "obj-55", "toggle", "int", 1, 5, "obj-53", "flonum", "float", 1000.0, 5, "obj-39", "number", "int", 0, 5, "obj-36", "flonum", "float", -1.0, 5, "obj-35", "toggle", "int", 1, 5, "obj-31", "flonum", "float", 1.0, 5, "obj-29", "flonum", "float", 0.0 ]
						}
, 						{
							"number" : 7,
							"data" : [ 5, "obj-100", "flonum", "float", 0.0, 5, "obj-99", "flonum", "float", 300.0, 5, "obj-98", "flonum", "float", 20.0, 5, "obj-97", "flonum", "float", 1.0, 5, "obj-96", "flonum", "float", 50.0, 5, "obj-95", "flonum", "float", 300.0, 5, "obj-94", "flonum", "float", 0.78, 6, "<invalid>", "gain~", "list", 83, 10.0, 6, "<invalid>", "gain~", "list", 83, 10.0, 5, "obj-76", "number", "int", 20, 5, "<invalid>", "toggle", "int", 1, 6, "<invalid>", "gain~", "list", 0, 10.0, 5, "<invalid>", "umenu", "int", 1, 5, "obj-58", "number", "int", 50, 5, "obj-55", "toggle", "int", 1, 5, "obj-53", "flonum", "float", 1000.0, 5, "obj-39", "number", "int", 0, 5, "obj-36", "flonum", "float", -1.0, 5, "obj-35", "toggle", "int", 1, 5, "obj-31", "flonum", "float", 1.0, 5, "obj-29", "flonum", "float", 0.0 ]
						}
, 						{
							"number" : 8,
							"data" : [ 5, "obj-100", "flonum", "float", 0.0, 5, "obj-99", "flonum", "float", 300.0, 5, "obj-98", "flonum", "float", 80.0, 5, "obj-97", "flonum", "float", 1.0, 5, "obj-96", "flonum", "float", 50.0, 5, "obj-95", "flonum", "float", 300.0, 5, "obj-94", "flonum", "float", 0.78, 6, "<invalid>", "gain~", "list", 83, 10.0, 6, "<invalid>", "gain~", "list", 83, 10.0, 5, "obj-76", "number", "int", 20, 5, "<invalid>", "toggle", "int", 1, 6, "<invalid>", "gain~", "list", 0, 10.0, 5, "<invalid>", "umenu", "int", 1, 5, "obj-58", "number", "int", 50, 5, "obj-55", "toggle", "int", 1, 5, "obj-53", "flonum", "float", 1000.0, 5, "obj-39", "number", "int", 0, 5, "obj-36", "flonum", "float", -1.0, 5, "obj-35", "toggle", "int", 1, 5, "obj-31", "flonum", "float", 1.0, 5, "obj-29", "flonum", "float", 0.0 ]
						}
, 						{
							"number" : 9,
							"data" : [ 5, "obj-100", "flonum", "float", 0.0, 5, "obj-99", "flonum", "float", 404.0, 5, "obj-98", "flonum", "float", 0.780001, 5, "obj-97", "flonum", "float", 1.0, 5, "obj-96", "flonum", "float", 0.0, 5, "obj-95", "flonum", "float", 70.0, 5, "obj-94", "flonum", "float", 0.0, 6, "<invalid>", "gain~", "list", 101, 10.0, 6, "<invalid>", "gain~", "list", 101, 10.0, 5, "obj-76", "number", "int", 10, 5, "<invalid>", "toggle", "int", 1, 6, "<invalid>", "gain~", "list", 0, 10.0, 5, "<invalid>", "umenu", "int", 2, 5, "obj-58", "number", "int", 50, 5, "obj-55", "toggle", "int", 1, 5, "obj-53", "flonum", "float", 3000.0, 5, "obj-39", "number", "int", 1, 5, "obj-36", "flonum", "float", 0.19, 5, "obj-35", "toggle", "int", 1, 5, "obj-31", "flonum", "float", 1.0, 5, "obj-29", "flonum", "float", 0.0, 5, "<invalid>", "toggle", "int", 1 ]
						}
, 						{
							"number" : 10,
							"data" : [ 5, "obj-100", "flonum", "float", 0.0, 5, "obj-99", "flonum", "float", 119.0, 5, "obj-98", "flonum", "float", 1.0, 5, "obj-97", "flonum", "float", 1.0, 5, "obj-96", "flonum", "float", 0.0, 5, "obj-95", "flonum", "float", 70.0, 5, "obj-94", "flonum", "float", 0.0, 6, "<invalid>", "gain~", "list", 101, 10.0, 6, "<invalid>", "gain~", "list", 101, 10.0, 5, "obj-76", "number", "int", 10, 5, "<invalid>", "toggle", "int", 1, 6, "<invalid>", "gain~", "list", 0, 10.0, 5, "<invalid>", "umenu", "int", 2, 5, "obj-58", "number", "int", 100, 5, "obj-55", "toggle", "int", 1, 5, "obj-53", "flonum", "float", 3000.0, 5, "obj-39", "number", "int", -1, 5, "obj-36", "flonum", "float", 0.139999, 5, "obj-35", "toggle", "int", 0, 5, "obj-31", "flonum", "float", 1.0, 5, "obj-29", "flonum", "float", 0.0, 5, "<invalid>", "toggle", "int", 1 ]
						}
, 						{
							"number" : 11,
							"data" : [ 5, "obj-100", "flonum", "float", 0.0, 5, "obj-99", "flonum", "float", 200.0, 5, "obj-98", "flonum", "float", 1.0, 5, "obj-97", "flonum", "float", 1.0, 5, "obj-96", "flonum", "float", 0.0, 5, "obj-95", "flonum", "float", 0.0, 5, "obj-94", "flonum", "float", 0.0, 6, "<invalid>", "gain~", "list", 101, 10.0, 6, "<invalid>", "gain~", "list", 101, 10.0, 5, "obj-76", "number", "int", 10, 5, "<invalid>", "toggle", "int", 1, 6, "<invalid>", "gain~", "list", 0, 10.0, 5, "<invalid>", "umenu", "int", 2, 5, "obj-58", "number", "int", 100, 5, "obj-55", "toggle", "int", 1, 5, "obj-53", "flonum", "float", 3000.0, 5, "obj-39", "number", "int", 1, 5, "obj-36", "flonum", "float", 0.14, 5, "obj-35", "toggle", "int", 0, 5, "obj-31", "flonum", "float", 1.0, 5, "obj-29", "flonum", "float", 0.57, 5, "<invalid>", "toggle", "int", 1 ]
						}
, 						{
							"number" : 12,
							"data" : [ 5, "obj-100", "flonum", "float", 0.0, 5, "obj-99", "flonum", "float", 425.0, 5, "obj-98", "flonum", "float", 1.0, 5, "obj-97", "flonum", "float", 1.0, 5, "obj-96", "flonum", "float", 100.0, 5, "obj-95", "flonum", "float", 0.0, 5, "obj-94", "flonum", "float", 0.0, 6, "<invalid>", "gain~", "list", 101, 10.0, 6, "<invalid>", "gain~", "list", 101, 10.0, 5, "obj-76", "number", "int", 10, 5, "<invalid>", "toggle", "int", 1, 6, "<invalid>", "gain~", "list", 0, 10.0, 5, "<invalid>", "umenu", "int", 2, 5, "obj-58", "number", "int", 100, 5, "obj-55", "toggle", "int", 1, 5, "obj-53", "flonum", "float", 3000.0, 5, "obj-39", "number", "int", 1, 5, "obj-36", "flonum", "float", 0.02, 5, "obj-35", "toggle", "int", 0, 5, "obj-31", "flonum", "float", 1.0, 5, "obj-29", "flonum", "float", 0.0, 5, "<invalid>", "toggle", "int", 1 ]
						}
 ],
					"spacing" : 2
				}

			}
, 			{
				"box" : 				{
					"bgcolor" : [ 0.866667, 0.866667, 0.866667, 1.0 ],
					"fontname" : "Arial",
					"fontsize" : 9.0,
					"htextcolor" : [ 0.870588, 0.870588, 0.870588, 1.0 ],
					"id" : "obj-29",
					"maxclass" : "flonum",
					"numinlets" : 1,
					"numoutlets" : 2,
					"outlettype" : [ "float", "bang" ],
					"parameter_enable" : 0,
					"patching_rect" : [ 354.0, 407.0, 35.0, 17.0 ],
					"triscale" : 0.9
				}

			}
, 			{
				"box" : 				{
					"fontname" : "Arial",
					"fontsize" : 9.0,
					"id" : "obj-30",
					"maxclass" : "message",
					"numinlets" : 2,
					"numoutlets" : 1,
					"outlettype" : [ "" ],
					"patching_rect" : [ 390.0, 407.0, 65.0, 15.0 ],
					"text" : "rand_gain $1"
				}

			}
, 			{
				"box" : 				{
					"bgcolor" : [ 0.866667, 0.866667, 0.866667, 1.0 ],
					"fontname" : "Arial",
					"fontsize" : 9.0,
					"htextcolor" : [ 0.870588, 0.870588, 0.870588, 1.0 ],
					"id" : "obj-31",
					"maxclass" : "flonum",
					"numinlets" : 1,
					"numoutlets" : 2,
					"outlettype" : [ "float", "bang" ],
					"parameter_enable" : 0,
					"patching_rect" : [ 354.0, 388.0, 35.0, 17.0 ],
					"triscale" : 0.9
				}

			}
, 			{
				"box" : 				{
					"fontname" : "Arial",
					"fontsize" : 9.0,
					"id" : "obj-32",
					"maxclass" : "message",
					"numinlets" : 2,
					"numoutlets" : 1,
					"outlettype" : [ "" ],
					"patching_rect" : [ 390.0, 388.0, 41.0, 15.0 ],
					"text" : "gain $1"
				}

			}
, 			{
				"box" : 				{
					"id" : "obj-35",
					"maxclass" : "toggle",
					"numinlets" : 1,
					"numoutlets" : 1,
					"outlettype" : [ "int" ],
					"parameter_enable" : 0,
					"patching_rect" : [ 354.5, 294.0, 15.0, 15.0 ]
				}

			}
, 			{
				"box" : 				{
					"bgcolor" : [ 0.866667, 0.866667, 0.866667, 1.0 ],
					"fontname" : "Arial",
					"fontsize" : 9.0,
					"htextcolor" : [ 0.870588, 0.870588, 0.870588, 1.0 ],
					"id" : "obj-36",
					"maxclass" : "flonum",
					"numinlets" : 1,
					"numoutlets" : 2,
					"outlettype" : [ "float", "bang" ],
					"parameter_enable" : 0,
					"patching_rect" : [ 354.0, 343.0, 35.0, 17.0 ],
					"triscale" : 0.9
				}

			}
, 			{
				"box" : 				{
					"fontname" : "Arial",
					"fontsize" : 9.0,
					"id" : "obj-37",
					"maxclass" : "message",
					"numinlets" : 2,
					"numoutlets" : 1,
					"outlettype" : [ "" ],
					"patching_rect" : [ 354.0, 361.0, 58.0, 15.0 ],
					"text" : "position $1"
				}

			}
, 			{
				"box" : 				{
					"fontname" : "Arial",
					"fontsize" : 9.0,
					"id" : "obj-38",
					"maxclass" : "message",
					"numinlets" : 2,
					"numoutlets" : 1,
					"outlettype" : [ "" ],
					"patching_rect" : [ 354.0, 312.0, 53.0, 15.0 ],
					"text" : "record $1"
				}

			}
, 			{
				"box" : 				{
					"bgcolor" : [ 0.866667, 0.866667, 0.866667, 1.0 ],
					"fontname" : "Arial",
					"fontsize" : 9.0,
					"htextcolor" : [ 0.870588, 0.870588, 0.870588, 1.0 ],
					"id" : "obj-39",
					"maxclass" : "number",
					"maximum" : 1,
					"minimum" : -1,
					"numinlets" : 1,
					"numoutlets" : 2,
					"outlettype" : [ "int", "bang" ],
					"parameter_enable" : 0,
					"patching_rect" : [ 354.0, 231.0, 35.0, 17.0 ],
					"triscale" : 0.9
				}

			}
, 			{
				"box" : 				{
					"fontname" : "Arial",
					"fontsize" : 9.0,
					"hidden" : 1,
					"id" : "obj-40",
					"maxclass" : "message",
					"numinlets" : 2,
					"numoutlets" : 1,
					"outlettype" : [ "" ],
					"patching_rect" : [ 262.0, 388.0, 32.5, 15.0 ],
					"text" : "3"
				}

			}
, 			{
				"box" : 				{
					"fontname" : "Arial",
					"fontsize" : 9.0,
					"hidden" : 1,
					"id" : "obj-41",
					"maxclass" : "newobj",
					"numinlets" : 1,
					"numoutlets" : 1,
					"outlettype" : [ "bang" ],
					"patching_rect" : [ 301.0, 364.0, 46.0, 17.0 ],
					"text" : "loadbang"
				}

			}
, 			{
				"box" : 				{
					"fontname" : "Arial",
					"fontsize" : 9.0,
					"hidden" : 1,
					"id" : "obj-42",
					"maxclass" : "newobj",
					"numinlets" : 1,
					"numoutlets" : 1,
					"outlettype" : [ "bang" ],
					"patching_rect" : [ 296.0, 259.0, 46.0, 17.0 ],
					"text" : "loadbang"
				}

			}
, 			{
				"box" : 				{
					"fontname" : "Arial",
					"fontsize" : 9.0,
					"id" : "obj-44",
					"maxclass" : "message",
					"numinlets" : 2,
					"numoutlets" : 1,
					"outlettype" : [ "" ],
					"patching_rect" : [ 354.0, 272.0, 51.0, 15.0 ],
					"text" : "minsize 5"
				}

			}
, 			{
				"box" : 				{
					"fontname" : "Arial",
					"fontsize" : 9.0,
					"id" : "obj-46",
					"maxclass" : "message",
					"numinlets" : 2,
					"numoutlets" : 1,
					"outlettype" : [ "" ],
					"patching_rect" : [ 354.0, 250.0, 92.0, 15.0 ],
					"text" : "ambidirectional $1"
				}

			}
, 			{
				"box" : 				{
					"fontname" : "Arial",
					"fontsize" : 9.0,
					"id" : "obj-47",
					"maxclass" : "message",
					"numinlets" : 2,
					"numoutlets" : 1,
					"outlettype" : [ "" ],
					"patching_rect" : [ 410.0, 76.0, 79.0, 15.0 ],
					"text" : "maxvoices 200"
				}

			}
, 			{
				"box" : 				{
					"fontname" : "Arial",
					"fontsize" : 9.0,
					"id" : "obj-48",
					"maxclass" : "message",
					"numinlets" : 2,
					"numoutlets" : 1,
					"outlettype" : [ "" ],
					"patching_rect" : [ 353.0, 431.0, 40.0, 15.0 ],
					"text" : "smooth"
				}

			}
, 			{
				"box" : 				{
					"fontname" : "Arial",
					"fontsize" : 9.0,
					"id" : "obj-49",
					"maxclass" : "message",
					"numinlets" : 2,
					"numoutlets" : 1,
					"outlettype" : [ "" ],
					"patching_rect" : [ 353.0, 448.0, 50.0, 15.0 ],
					"text" : "tempered"
				}

			}
, 			{
				"box" : 				{
					"fontname" : "Arial",
					"fontsize" : 9.0,
					"id" : "obj-50",
					"maxclass" : "message",
					"numinlets" : 2,
					"numoutlets" : 1,
					"outlettype" : [ "" ],
					"patching_rect" : [ 353.0, 501.0, 342.0, 15.0 ],
					"text" : "scale 0 -2 2 -4 4 -6 6 -8 8 -10 10 -12 12 -14 14 -16 16 -18 18 -20 20"
				}

			}
, 			{
				"box" : 				{
					"fontname" : "Arial",
					"fontsize" : 9.0,
					"id" : "obj-51",
					"maxclass" : "message",
					"numinlets" : 2,
					"numoutlets" : 1,
					"outlettype" : [ "" ],
					"patching_rect" : [ 353.0, 483.0, 205.0, 15.0 ],
					"text" : "scale 0 4 4 4 7 7 11 11 14 18 -12 -12 -12"
				}

			}
, 			{
				"box" : 				{
					"fontname" : "Arial",
					"fontsize" : 9.0,
					"id" : "obj-52",
					"maxclass" : "message",
					"numinlets" : 2,
					"numoutlets" : 1,
					"outlettype" : [ "" ],
					"patching_rect" : [ 353.0, 465.0, 102.0, 15.0 ],
					"text" : "scale 0 4 7 -2 12 15"
				}

			}
, 			{
				"box" : 				{
					"bgcolor" : [ 0.866667, 0.866667, 0.866667, 1.0 ],
					"fontname" : "Arial",
					"fontsize" : 9.0,
					"htextcolor" : [ 0.870588, 0.870588, 0.870588, 1.0 ],
					"id" : "obj-53",
					"maxclass" : "flonum",
					"numinlets" : 1,
					"numoutlets" : 2,
					"outlettype" : [ "float", "bang" ],
					"parameter_enable" : 0,
					"patching_rect" : [ 354.0, 184.0, 56.0, 17.0 ],
					"triscale" : 0.9
				}

			}
, 			{
				"box" : 				{
					"fontname" : "Arial",
					"fontsize" : 9.0,
					"id" : "obj-54",
					"maxclass" : "message",
					"numinlets" : 2,
					"numoutlets" : 1,
					"outlettype" : [ "" ],
					"patching_rect" : [ 354.0, 205.0, 93.0, 15.0 ],
					"text" : "delaylength_ms $1"
				}

			}
, 			{
				"box" : 				{
					"id" : "obj-55",
					"maxclass" : "toggle",
					"numinlets" : 1,
					"numoutlets" : 1,
					"outlettype" : [ "int" ],
					"parameter_enable" : 0,
					"patching_rect" : [ 354.0, 141.0, 15.0, 15.0 ]
				}

			}
, 			{
				"box" : 				{
					"fontname" : "Arial",
					"fontsize" : 9.0,
					"id" : "obj-56",
					"maxclass" : "message",
					"numinlets" : 2,
					"numoutlets" : 1,
					"outlettype" : [ "" ],
					"patching_rect" : [ 354.0, 159.0, 51.0, 15.0 ],
					"text" : "power $1"
				}

			}
, 			{
				"box" : 				{
					"bgcolor" : [ 0.866667, 0.866667, 0.866667, 1.0 ],
					"fontname" : "Arial",
					"fontsize" : 9.0,
					"htextcolor" : [ 0.870588, 0.870588, 0.870588, 1.0 ],
					"id" : "obj-58",
					"maxclass" : "number",
					"numinlets" : 1,
					"numoutlets" : 2,
					"outlettype" : [ "int", "bang" ],
					"parameter_enable" : 0,
					"patching_rect" : [ 354.0, 101.0, 35.0, 17.0 ],
					"triscale" : 0.9
				}

			}
, 			{
				"box" : 				{
					"fontname" : "Arial",
					"fontsize" : 9.0,
					"frgb" : 0.0,
					"id" : "obj-66",
					"maxclass" : "comment",
					"numinlets" : 1,
					"numoutlets" : 0,
					"patching_rect" : [ 486.0, 626.0, 76.0, 17.0 ],
					"text" : "'munged' signal."
				}

			}
, 			{
				"box" : 				{
					"bgcolor" : [ 0.866667, 0.866667, 0.866667, 1.0 ],
					"fontname" : "Arial",
					"fontsize" : 9.0,
					"htextcolor" : [ 0.870588, 0.870588, 0.870588, 1.0 ],
					"id" : "obj-76",
					"maxclass" : "number",
					"numinlets" : 1,
					"numoutlets" : 2,
					"outlettype" : [ "int", "bang" ],
					"parameter_enable" : 0,
					"patching_rect" : [ 354.0, 57.0, 35.0, 17.0 ],
					"triscale" : 0.9
				}

			}
, 			{
				"box" : 				{
					"fontname" : "Arial",
					"fontsize" : 9.0,
					"id" : "obj-77",
					"maxclass" : "message",
					"numinlets" : 2,
					"numoutlets" : 1,
					"outlettype" : [ "" ],
					"patching_rect" : [ 354.0, 76.0, 52.0, 15.0 ],
					"text" : "voices $1"
				}

			}
, 			{
				"box" : 				{
					"fontname" : "Arial",
					"fontsize" : 9.0,
					"frgb" : 0.0,
					"id" : "obj-78",
					"linecount" : 2,
					"maxclass" : "comment",
					"numinlets" : 1,
					"numoutlets" : 0,
					"patching_rect" : [ 372.0, 538.0, 53.0, 27.0 ],
					"text" : "grain pitch variation"
				}

			}
, 			{
				"box" : 				{
					"fontname" : "Arial",
					"fontsize" : 9.0,
					"frgb" : 0.0,
					"id" : "obj-79",
					"maxclass" : "comment",
					"numinlets" : 1,
					"numoutlets" : 0,
					"patching_rect" : [ 317.0, 538.0, 53.0, 17.0 ],
					"text" : "grain pitch"
				}

			}
, 			{
				"box" : 				{
					"fontname" : "Arial",
					"fontsize" : 9.0,
					"frgb" : 0.0,
					"id" : "obj-80",
					"linecount" : 2,
					"maxclass" : "comment",
					"numinlets" : 1,
					"numoutlets" : 0,
					"patching_rect" : [ 262.0, 538.0, 53.0, 27.0 ],
					"text" : "grain size variation"
				}

			}
, 			{
				"box" : 				{
					"fontname" : "Arial",
					"fontsize" : 9.0,
					"frgb" : 0.0,
					"id" : "obj-81",
					"linecount" : 2,
					"maxclass" : "comment",
					"numinlets" : 1,
					"numoutlets" : 0,
					"patching_rect" : [ 152.0, 538.0, 53.0, 27.0 ],
					"text" : "grain rate variation"
				}

			}
, 			{
				"box" : 				{
					"fontname" : "Arial",
					"fontsize" : 9.0,
					"frgb" : 0.0,
					"id" : "obj-89",
					"maxclass" : "comment",
					"numinlets" : 1,
					"numoutlets" : 0,
					"patching_rect" : [ 474.0, 667.0, 75.0, 17.0 ],
					"text" : "• start audio"
				}

			}
, 			{
				"box" : 				{
					"fontname" : "Arial",
					"fontsize" : 9.0,
					"id" : "obj-93",
					"maxclass" : "message",
					"numinlets" : 2,
					"numoutlets" : 1,
					"outlettype" : [ "" ],
					"patching_rect" : [ 354.0, 119.0, 65.0, 15.0 ],
					"text" : "ramptime $1"
				}

			}
, 			{
				"box" : 				{
					"bgcolor" : [ 0.866667, 0.866667, 0.866667, 1.0 ],
					"fontname" : "Arial",
					"fontsize" : 9.0,
					"htextcolor" : [ 0.870588, 0.870588, 0.870588, 1.0 ],
					"id" : "obj-94",
					"maxclass" : "flonum",
					"minimum" : 0.0,
					"numinlets" : 1,
					"numoutlets" : 2,
					"outlettype" : [ "float", "bang" ],
					"parameter_enable" : 0,
					"patching_rect" : [ 372.0, 565.0, 35.0, 17.0 ],
					"triscale" : 0.9
				}

			}
, 			{
				"box" : 				{
					"bgcolor" : [ 0.866667, 0.866667, 0.866667, 1.0 ],
					"fontname" : "Arial",
					"fontsize" : 9.0,
					"htextcolor" : [ 0.870588, 0.870588, 0.870588, 1.0 ],
					"id" : "obj-95",
					"maxclass" : "flonum",
					"minimum" : 0.0,
					"numinlets" : 1,
					"numoutlets" : 2,
					"outlettype" : [ "float", "bang" ],
					"parameter_enable" : 0,
					"patching_rect" : [ 262.0, 565.0, 35.0, 17.0 ],
					"triscale" : 0.9
				}

			}
, 			{
				"box" : 				{
					"bgcolor" : [ 0.866667, 0.866667, 0.866667, 1.0 ],
					"fontname" : "Arial",
					"fontsize" : 9.0,
					"htextcolor" : [ 0.870588, 0.870588, 0.870588, 1.0 ],
					"id" : "obj-96",
					"maxclass" : "flonum",
					"minimum" : 0.0,
					"numinlets" : 1,
					"numoutlets" : 2,
					"outlettype" : [ "float", "bang" ],
					"parameter_enable" : 0,
					"patching_rect" : [ 152.0, 565.0, 35.0, 17.0 ],
					"triscale" : 0.9
				}

			}
, 			{
				"box" : 				{
					"bgcolor" : [ 0.866667, 0.866667, 0.866667, 1.0 ],
					"fontname" : "Arial",
					"fontsize" : 9.0,
					"htextcolor" : [ 0.870588, 0.870588, 0.870588, 1.0 ],
					"id" : "obj-97",
					"maxclass" : "flonum",
					"maximum" : 1.0,
					"minimum" : 0.0,
					"numinlets" : 1,
					"numoutlets" : 2,
					"outlettype" : [ "float", "bang" ],
					"parameter_enable" : 0,
					"patching_rect" : [ 427.0, 565.0, 35.0, 17.0 ],
					"triscale" : 0.9
				}

			}
, 			{
				"box" : 				{
					"bgcolor" : [ 0.866667, 0.866667, 0.866667, 1.0 ],
					"fontname" : "Arial",
					"fontsize" : 9.0,
					"htextcolor" : [ 0.870588, 0.870588, 0.870588, 1.0 ],
					"id" : "obj-98",
					"maxclass" : "flonum",
					"numinlets" : 1,
					"numoutlets" : 2,
					"outlettype" : [ "float", "bang" ],
					"parameter_enable" : 0,
					"patching_rect" : [ 317.0, 565.0, 35.0, 17.0 ],
					"triscale" : 0.9
				}

			}
, 			{
				"box" : 				{
					"bgcolor" : [ 0.866667, 0.866667, 0.866667, 1.0 ],
					"fontname" : "Arial",
					"fontsize" : 9.0,
					"htextcolor" : [ 0.870588, 0.870588, 0.870588, 1.0 ],
					"id" : "obj-99",
					"maxclass" : "flonum",
					"maximum" : 20000.0,
					"minimum" : 0.0,
					"numinlets" : 1,
					"numoutlets" : 2,
					"outlettype" : [ "float", "bang" ],
					"parameter_enable" : 0,
					"patching_rect" : [ 207.0, 565.0, 40.0, 17.0 ],
					"triscale" : 0.9
				}

			}
, 			{
				"box" : 				{
					"bgcolor" : [ 0.866667, 0.866667, 0.866667, 1.0 ],
					"fontname" : "Arial",
					"fontsize" : 9.0,
					"htextcolor" : [ 0.870588, 0.870588, 0.870588, 1.0 ],
					"id" : "obj-100",
					"maxclass" : "flonum",
					"numinlets" : 1,
					"numoutlets" : 2,
					"outlettype" : [ "float", "bang" ],
					"parameter_enable" : 0,
					"patching_rect" : [ 97.0, 565.0, 35.0, 17.0 ],
					"triscale" : 0.9
				}

			}
, 			{
				"box" : 				{
					"color" : [ 1.0, 0.741176, 0.611765, 1.0 ],
					"fontname" : "Arial",
					"fontsize" : 9.0,
					"id" : "obj-101",
					"maxclass" : "newobj",
					"numinlets" : 8,
					"numoutlets" : 8,
					"outlettype" : [ "signal", "signal", "signal", "signal", "signal", "signal", "signal", "signal" ],
					"patching_rect" : [ 42.0, 589.0, 404.0, 17.0 ],
					"text" : "disis_munger~ 3000 8 55 nameme"
				}

			}
, 			{
				"box" : 				{
					"fontname" : "Arial",
					"fontsize" : 9.0,
					"frgb" : 0.0,
					"id" : "obj-102",
					"linecount" : 2,
					"maxclass" : "comment",
					"numinlets" : 1,
					"numoutlets" : 0,
					"patching_rect" : [ 97.0, 538.0, 53.0, 27.0 ],
					"text" : "grain separation"
				}

			}
, 			{
				"box" : 				{
					"fontname" : "Arial",
					"fontsize" : 9.0,
					"frgb" : 0.0,
					"id" : "obj-103",
					"maxclass" : "comment",
					"numinlets" : 1,
					"numoutlets" : 0,
					"patching_rect" : [ 207.0, 538.0, 52.0, 17.0 ],
					"text" : "grain size"
				}

			}
, 			{
				"box" : 				{
					"fontname" : "Arial",
					"fontsize" : 9.0,
					"frgb" : 0.0,
					"id" : "obj-104",
					"linecount" : 2,
					"maxclass" : "comment",
					"numinlets" : 1,
					"numoutlets" : 0,
					"patching_rect" : [ 427.0, 538.0, 38.0, 27.0 ],
					"text" : "stereo spread"
				}

			}
, 			{
				"box" : 				{
					"fontname" : "Arial",
					"fontsize" : 9.0,
					"frgb" : 0.0,
					"id" : "obj-106",
					"maxclass" : "comment",
					"numinlets" : 1,
					"numoutlets" : 0,
					"patching_rect" : [ 542.0, 647.0, 66.0, 17.0 ],
					"text" : "dry signal."
				}

			}
, 			{
				"box" : 				{
					"fontname" : "Arial",
					"fontsize" : 9.0,
					"frgb" : 0.0,
					"id" : "obj-109",
					"maxclass" : "comment",
					"numinlets" : 1,
					"numoutlets" : 0,
					"patching_rect" : [ 171.0, 524.0, 117.0, 17.0 ],
					"text" : "<-- values are in ms -->"
				}

			}
, 			{
				"box" : 				{
					"fontname" : "Arial",
					"fontsize" : 9.0,
					"frgb" : 0.0,
					"id" : "obj-111",
					"maxclass" : "comment",
					"numinlets" : 1,
					"numoutlets" : 0,
					"patching_rect" : [ 176.0, 508.0, 107.0, 17.0 ],
					"text" : "PRIMARY CONTROLS"
				}

			}
, 			{
				"box" : 				{
					"fontname" : "Arial",
					"fontsize" : 9.0,
					"frgb" : 0.0,
					"id" : "obj-118",
					"linecount" : 3,
					"maxclass" : "comment",
					"numinlets" : 1,
					"numoutlets" : 0,
					"patching_rect" : [ 208.0, 464.0, 124.0, 37.0 ],
					"text" : "try some presets (bottom row to be used with soundfiles)\r"
				}

			}
, 			{
				"box" : 				{
					"fontname" : "Arial",
					"fontsize" : 9.0,
					"id" : "obj-119",
					"maxclass" : "newobj",
					"numinlets" : 1,
					"numoutlets" : 2,
					"outlettype" : [ "float", "bang" ],
					"patching_rect" : [ 19.0, 64.0, 139.0, 17.0 ],
					"text" : "buffer~ something 2000"
				}

			}
 ],
		"lines" : [ 			{
				"patchline" : 				{
					"destination" : [ "obj-101", 0 ],
					"disabled" : 0,
					"hidden" : 1,
					"source" : [ "obj-10", 0 ]
				}

			}
, 			{
				"patchline" : 				{
					"destination" : [ "obj-101", 1 ],
					"disabled" : 0,
					"hidden" : 0,
					"source" : [ "obj-100", 0 ]
				}

			}
, 			{
				"patchline" : 				{
					"destination" : [ "obj-16", 0 ],
					"disabled" : 0,
					"hidden" : 0,
					"source" : [ "obj-101", 0 ]
				}

			}
, 			{
				"patchline" : 				{
					"destination" : [ "obj-17", 0 ],
					"disabled" : 0,
					"hidden" : 0,
					"source" : [ "obj-101", 1 ]
				}

			}
, 			{
				"patchline" : 				{
					"destination" : [ "obj-18", 0 ],
					"disabled" : 0,
					"hidden" : 0,
					"source" : [ "obj-101", 3 ]
				}

			}
, 			{
				"patchline" : 				{
					"destination" : [ "obj-19", 0 ],
					"disabled" : 0,
					"hidden" : 0,
					"source" : [ "obj-101", 2 ]
				}

			}
, 			{
				"patchline" : 				{
					"destination" : [ "obj-21", 0 ],
					"disabled" : 0,
					"hidden" : 0,
					"source" : [ "obj-101", 7 ]
				}

			}
, 			{
				"patchline" : 				{
					"destination" : [ "obj-23", 0 ],
					"disabled" : 0,
					"hidden" : 0,
					"source" : [ "obj-101", 6 ]
				}

			}
, 			{
				"patchline" : 				{
					"destination" : [ "obj-24", 0 ],
					"disabled" : 0,
					"hidden" : 0,
					"source" : [ "obj-101", 5 ]
				}

			}
, 			{
				"patchline" : 				{
					"destination" : [ "obj-25", 0 ],
					"disabled" : 0,
					"hidden" : 0,
					"source" : [ "obj-101", 4 ]
				}

			}
, 			{
				"patchline" : 				{
					"destination" : [ "obj-101", 0 ],
					"disabled" : 0,
					"hidden" : 1,
					"source" : [ "obj-11", 0 ]
				}

			}
, 			{
				"patchline" : 				{
					"destination" : [ "obj-101", 0 ],
					"disabled" : 0,
					"hidden" : 1,
					"source" : [ "obj-12", 0 ]
				}

			}
, 			{
				"patchline" : 				{
					"destination" : [ "obj-101", 0 ],
					"disabled" : 0,
					"hidden" : 0,
					"source" : [ "obj-13", 0 ]
				}

			}
, 			{
				"patchline" : 				{
					"destination" : [ "obj-35", 0 ],
					"disabled" : 0,
					"hidden" : 0,
					"source" : [ "obj-15", 0 ]
				}

			}
, 			{
				"patchline" : 				{
					"destination" : [ "obj-119", 0 ],
					"disabled" : 0,
					"hidden" : 0,
					"source" : [ "obj-2", 0 ]
				}

			}
, 			{
				"patchline" : 				{
					"destination" : [ "obj-101", 0 ],
					"disabled" : 0,
					"hidden" : 1,
					"midpoints" : [ 494.5, 555.0, 51.5, 555.0 ],
					"source" : [ "obj-20", 0 ]
				}

			}
, 			{
				"patchline" : 				{
					"destination" : [ "obj-101", 0 ],
					"disabled" : 0,
					"hidden" : 1,
					"source" : [ "obj-22", 0 ]
				}

			}
, 			{
				"patchline" : 				{
					"destination" : [ "obj-30", 0 ],
					"disabled" : 0,
					"hidden" : 1,
					"source" : [ "obj-29", 0 ]
				}

			}
, 			{
				"patchline" : 				{
					"destination" : [ "obj-101", 0 ],
					"disabled" : 0,
					"hidden" : 1,
					"source" : [ "obj-3", 0 ]
				}

			}
, 			{
				"patchline" : 				{
					"destination" : [ "obj-101", 0 ],
					"disabled" : 0,
					"hidden" : 1,
					"midpoints" : [ 52.0, 422.0 ],
					"source" : [ "obj-30", 0 ]
				}

			}
, 			{
				"patchline" : 				{
					"destination" : [ "obj-32", 0 ],
					"disabled" : 0,
					"hidden" : 1,
					"source" : [ "obj-31", 0 ]
				}

			}
, 			{
				"patchline" : 				{
					"destination" : [ "obj-101", 0 ],
					"disabled" : 0,
					"hidden" : 1,
					"midpoints" : [ 52.0, 403.0 ],
					"source" : [ "obj-32", 0 ]
				}

			}
, 			{
				"patchline" : 				{
					"destination" : [ "obj-38", 0 ],
					"disabled" : 0,
					"hidden" : 0,
					"source" : [ "obj-35", 0 ]
				}

			}
, 			{
				"patchline" : 				{
					"destination" : [ "obj-37", 0 ],
					"disabled" : 0,
					"hidden" : 0,
					"source" : [ "obj-36", 0 ]
				}

			}
, 			{
				"patchline" : 				{
					"destination" : [ "obj-101", 0 ],
					"disabled" : 0,
					"hidden" : 1,
					"midpoints" : [ 52.0, 376.0 ],
					"source" : [ "obj-37", 0 ]
				}

			}
, 			{
				"patchline" : 				{
					"destination" : [ "obj-101", 0 ],
					"disabled" : 0,
					"hidden" : 1,
					"midpoints" : [ 52.0, 327.0 ],
					"source" : [ "obj-38", 0 ]
				}

			}
, 			{
				"patchline" : 				{
					"destination" : [ "obj-46", 0 ],
					"disabled" : 0,
					"hidden" : 0,
					"source" : [ "obj-39", 0 ]
				}

			}
, 			{
				"patchline" : 				{
					"destination" : [ "obj-101", 0 ],
					"disabled" : 0,
					"hidden" : 1,
					"source" : [ "obj-4", 0 ]
				}

			}
, 			{
				"patchline" : 				{
					"destination" : [ "obj-27", 0 ],
					"disabled" : 0,
					"hidden" : 1,
					"source" : [ "obj-40", 0 ]
				}

			}
, 			{
				"patchline" : 				{
					"destination" : [ "obj-12", 0 ],
					"disabled" : 0,
					"hidden" : 1,
					"source" : [ "obj-41", 0 ]
				}

			}
, 			{
				"patchline" : 				{
					"destination" : [ "obj-40", 0 ],
					"disabled" : 0,
					"hidden" : 1,
					"source" : [ "obj-41", 0 ]
				}

			}
, 			{
				"patchline" : 				{
					"destination" : [ "obj-44", 0 ],
					"disabled" : 0,
					"hidden" : 1,
					"source" : [ "obj-42", 0 ]
				}

			}
, 			{
				"patchline" : 				{
					"destination" : [ "obj-52", 0 ],
					"disabled" : 0,
					"hidden" : 1,
					"source" : [ "obj-42", 0 ]
				}

			}
, 			{
				"patchline" : 				{
					"destination" : [ "obj-101", 0 ],
					"disabled" : 0,
					"hidden" : 1,
					"midpoints" : [ 363.5, 480.0, 51.5, 480.0 ],
					"source" : [ "obj-44", 0 ]
				}

			}
, 			{
				"patchline" : 				{
					"destination" : [ "obj-101", 0 ],
					"disabled" : 0,
					"hidden" : 1,
					"midpoints" : [ 363.5, 481.0, 51.5, 481.0 ],
					"source" : [ "obj-46", 0 ]
				}

			}
, 			{
				"patchline" : 				{
					"destination" : [ "obj-101", 0 ],
					"disabled" : 0,
					"hidden" : 1,
					"midpoints" : [ 419.5, 439.0, 51.5, 439.0 ],
					"source" : [ "obj-47", 0 ]
				}

			}
, 			{
				"patchline" : 				{
					"destination" : [ "obj-101", 0 ],
					"disabled" : 0,
					"hidden" : 1,
					"midpoints" : [ 362.5, 437.0, 51.5, 437.0 ],
					"source" : [ "obj-48", 0 ]
				}

			}
, 			{
				"patchline" : 				{
					"destination" : [ "obj-101", 0 ],
					"disabled" : 0,
					"hidden" : 1,
					"midpoints" : [ 362.5, 436.0, 51.5, 436.0 ],
					"source" : [ "obj-49", 0 ]
				}

			}
, 			{
				"patchline" : 				{
					"destination" : [ "obj-6", 0 ],
					"disabled" : 0,
					"hidden" : 0,
					"source" : [ "obj-5", 0 ]
				}

			}
, 			{
				"patchline" : 				{
					"destination" : [ "obj-101", 0 ],
					"disabled" : 0,
					"hidden" : 1,
					"midpoints" : [ 362.5, 330.0, 51.5, 330.0 ],
					"source" : [ "obj-50", 0 ]
				}

			}
, 			{
				"patchline" : 				{
					"destination" : [ "obj-101", 0 ],
					"disabled" : 0,
					"hidden" : 1,
					"midpoints" : [ 362.5, 332.0, 51.5, 332.0 ],
					"source" : [ "obj-51", 0 ]
				}

			}
, 			{
				"patchline" : 				{
					"destination" : [ "obj-101", 0 ],
					"disabled" : 0,
					"hidden" : 1,
					"midpoints" : [ 362.5, 330.0, 51.5, 330.0 ],
					"source" : [ "obj-52", 0 ]
				}

			}
, 			{
				"patchline" : 				{
					"destination" : [ "obj-54", 0 ],
					"disabled" : 0,
					"hidden" : 0,
					"source" : [ "obj-53", 0 ]
				}

			}
, 			{
				"patchline" : 				{
					"destination" : [ "obj-101", 0 ],
					"disabled" : 0,
					"hidden" : 1,
					"midpoints" : [ 363.5, 330.0, 51.5, 330.0 ],
					"source" : [ "obj-54", 0 ]
				}

			}
, 			{
				"patchline" : 				{
					"destination" : [ "obj-56", 0 ],
					"disabled" : 0,
					"hidden" : 1,
					"source" : [ "obj-55", 0 ]
				}

			}
, 			{
				"patchline" : 				{
					"destination" : [ "obj-101", 0 ],
					"disabled" : 0,
					"hidden" : 1,
					"midpoints" : [ 363.5, 330.0, 51.5, 330.0 ],
					"source" : [ "obj-56", 0 ]
				}

			}
, 			{
				"patchline" : 				{
					"destination" : [ "obj-93", 0 ],
					"disabled" : 0,
					"hidden" : 1,
					"source" : [ "obj-58", 0 ]
				}

			}
, 			{
				"patchline" : 				{
					"destination" : [ "obj-101", 0 ],
					"disabled" : 0,
					"hidden" : 1,
					"source" : [ "obj-6", 0 ]
				}

			}
, 			{
				"patchline" : 				{
					"destination" : [ "obj-8", 0 ],
					"disabled" : 0,
					"hidden" : 0,
					"source" : [ "obj-7", 0 ]
				}

			}
, 			{
				"patchline" : 				{
					"destination" : [ "obj-77", 0 ],
					"disabled" : 0,
					"hidden" : 1,
					"source" : [ "obj-76", 0 ]
				}

			}
, 			{
				"patchline" : 				{
					"destination" : [ "obj-101", 0 ],
					"disabled" : 0,
					"hidden" : 1,
					"midpoints" : [ 363.5, 330.0, 51.5, 330.0 ],
					"source" : [ "obj-77", 0 ]
				}

			}
, 			{
				"patchline" : 				{
					"destination" : [ "obj-101", 0 ],
					"disabled" : 0,
					"hidden" : 1,
					"source" : [ "obj-8", 0 ]
				}

			}
, 			{
				"patchline" : 				{
					"destination" : [ "obj-11", 0 ],
					"disabled" : 0,
					"hidden" : 0,
					"source" : [ "obj-9", 0 ]
				}

			}
, 			{
				"patchline" : 				{
					"destination" : [ "obj-101", 0 ],
					"disabled" : 0,
					"hidden" : 1,
					"midpoints" : [ 363.5, 330.0, 51.5, 330.0 ],
					"source" : [ "obj-93", 0 ]
				}

			}
, 			{
				"patchline" : 				{
					"destination" : [ "obj-101", 6 ],
					"disabled" : 0,
					"hidden" : 0,
					"source" : [ "obj-94", 0 ]
				}

			}
, 			{
				"patchline" : 				{
					"destination" : [ "obj-101", 4 ],
					"disabled" : 0,
					"hidden" : 0,
					"source" : [ "obj-95", 0 ]
				}

			}
, 			{
				"patchline" : 				{
					"destination" : [ "obj-101", 2 ],
					"disabled" : 0,
					"hidden" : 0,
					"source" : [ "obj-96", 0 ]
				}

			}
, 			{
				"patchline" : 				{
					"destination" : [ "obj-101", 7 ],
					"disabled" : 0,
					"hidden" : 0,
					"source" : [ "obj-97", 0 ]
				}

			}
, 			{
				"patchline" : 				{
					"destination" : [ "obj-101", 5 ],
					"disabled" : 0,
					"hidden" : 0,
					"source" : [ "obj-98", 0 ]
				}

			}
, 			{
				"patchline" : 				{
					"destination" : [ "obj-101", 3 ],
					"disabled" : 0,
					"hidden" : 0,
					"source" : [ "obj-99", 0 ]
				}

			}
 ],
		"dependency_cache" : [ 			{
				"name" : "disis_munger~.mxo",
				"type" : "iLaX"
			}
 ]
	}

}
